<svg xmlns="http://www.w3.org/2000/svg" viewBox="0 0 45 46" fill="currentColor" width="24" height="24" role="img" aria-hidden="true"><path d="M22.1107 0.713318C9.89634 0.713318 0 10.6097 0 22.8241C0 35.0385 9.89634 44.9348 22.1107 44.9348C34.3251 44.9348 44.2215 35.0385 44.2215 22.8241C44.2215 10.6097 34.3251 0.713318 22.1107 0.713318ZM32.97 15.861L29.3413 32.9611C29.0738 34.1736 28.3517 34.4679 27.3442 33.8973L21.8165 29.8228L19.1508 32.3905C18.8565 32.6847 18.6069 32.9344 18.0363 32.9344L18.4286 27.3086L28.6726 18.0542C29.1184 17.6619 28.5746 17.439 27.9861 17.8313L15.326 25.8019L9.86959 24.099C8.68382 23.7245 8.65707 22.9132 10.1192 22.3426L31.4365 14.1224C32.4261 13.7658 33.2909 14.3631 32.97 15.861Z" fill="currentColor"></path></svg>