<svg xmlns="http://www.w3.org/2000/svg" viewBox="0 0 22 22" fill="currentColor" width="24" height="24" role="img" aria-hidden="true"><path d="M18.9826 2.66269C16.5891 0.650135 12.8911 0.952431 10.6011 3.28384C8.3111 0.952431 4.61314 0.645993 2.21961 2.66269C-0.894463 5.28397 -0.438947 9.55754 1.78066 11.8227L9.04407 19.2228C9.45817 19.6451 10.0131 19.8812 10.6011 19.8812C11.1933 19.8812 11.744 19.6493 12.1581 19.2269L19.4215 11.8268C21.637 9.56168 22.1008 5.28811 18.9826 2.66269ZM18.0053 10.4272L10.7419 17.8272C10.6425 17.9266 10.5597 17.9266 10.4603 17.8272L3.1969 10.4272C1.68541 8.88669 1.37898 5.97139 3.4992 4.18659C5.11006 2.83247 7.5947 3.03538 9.15173 4.6214L10.6011 6.09976L12.0505 4.6214C13.6158 3.0271 16.1004 2.83247 17.703 4.18245C19.8191 5.96725 19.5044 8.89911 18.0053 10.4272Z" fill="currentColor"></path></svg>