<svg xmlns="http://www.w3.org/2000/svg" viewBox="0 0 22 22" fill="currentColor" width="24" height="24" role="img" aria-hidden="true"><path d="M10.6009 0.331299C4.92762 0.331299 0.331055 4.92787 0.331055 10.6011C0.331055 16.2744 4.92762 20.8709 10.6009 20.8709C16.2741 20.8709 20.8707 16.2744 20.8707 10.6011C20.8707 4.92787 16.2741 0.331299 10.6009 0.331299ZM10.6009 18.8832C6.025 18.8832 2.31876 15.177 2.31876 10.6011C2.31876 6.02525 6.025 2.319 10.6009 2.319C15.1767 2.319 18.883 6.02525 18.883 10.6011C18.883 15.177 15.1767 18.8832 10.6009 18.8832ZM14.8165 8.02538L12.2407 10.6011L14.8165 13.1768C15.0111 13.3715 15.0111 13.6862 14.8165 13.8808L13.8806 14.8167C13.686 15.0113 13.3712 15.0113 13.1766 14.8167L10.6009 12.241L8.02513 14.8167C7.8305 15.0113 7.51578 15.0113 7.32115 14.8167L6.38528 13.8808C6.19065 13.6862 6.19065 13.3715 6.38528 13.1768L8.96101 10.6011L6.38528 8.02538C6.19065 7.83075 6.19065 7.51603 6.38528 7.3214L7.32115 6.38552C7.51578 6.19089 7.8305 6.19089 8.02513 6.38552L10.6009 8.96126L13.1766 6.38552C13.3712 6.19089 13.686 6.19089 13.8806 6.38552L14.8165 7.3214C15.0111 7.51603 15.0111 7.83075 14.8165 8.02538Z" fill="currentColor"></path></svg>