<svg xmlns="http://www.w3.org/2000/svg" viewBox="0 0 21 22" fill="currentColor" width="24" height="24" role="img" aria-hidden="true"><path d="M10.2698 4.30671C8.07506 4.30671 6.2944 6.08736 6.2944 8.28212C6.2944 10.4769 8.07506 12.2575 10.2698 12.2575C12.4646 12.2575 14.2452 10.4769 14.2452 8.28212C14.2452 6.08736 12.4646 4.30671 10.2698 4.30671ZM10.2698 10.2698C9.17243 10.2698 8.28211 9.3795 8.28211 8.28212C8.28211 7.18474 9.17243 6.29442 10.2698 6.29442C11.3672 6.29442 12.2575 7.18474 12.2575 8.28212C12.2575 9.3795 11.3672 10.2698 10.2698 10.2698ZM10.2698 0.331299C4.59657 0.331299 0 4.92787 0 10.6011C0 16.2744 4.59657 20.8709 10.2698 20.8709C15.9431 20.8709 20.5396 16.2744 20.5396 10.6011C20.5396 4.92787 15.9431 0.331299 10.2698 0.331299ZM10.2698 18.8832C8.21171 18.8832 6.33167 18.1254 4.8823 16.879C5.49932 15.9265 6.55529 15.2805 7.76448 15.2432C8.62582 15.5083 9.44574 15.6408 10.2698 15.6408C11.0939 15.6408 11.9138 15.5124 12.7752 15.2432C13.9843 15.2846 15.0403 15.9265 15.6573 16.879C14.208 18.1254 12.3279 18.8832 10.2698 18.8832ZM17.0073 15.4006C15.9969 14.1003 14.4357 13.2514 12.6551 13.2514C12.2327 13.2514 11.5784 13.6489 10.2698 13.6489C8.96538 13.6489 8.30695 13.2514 7.88457 13.2514C6.10805 13.2514 4.54688 14.1003 3.53232 15.4006C2.56331 14.0465 1.98771 12.39 1.98771 10.6011C1.98771 6.03353 5.70223 2.319 10.2698 2.319C14.8374 2.319 18.5519 6.03353 18.5519 10.6011C18.5519 12.39 17.9763 14.0465 17.0073 15.4006Z" fill="currentColor"></path></svg>