<svg xmlns="http://www.w3.org/2000/svg" viewBox="0 0 40 46" fill="currentColor" width="24" height="24" role="img" aria-hidden="true"><path d="M33.9596 8.6571C30.224 4.91254 25.249 2.85303 19.9621 2.85303C9.04936 2.85303 0.169397 11.733 0.169397 22.6457C0.169397 26.1317 1.07879 29.5375 2.80842 32.5421L0 42.795L10.4937 40.0401C13.3823 41.6182 16.6366 42.4473 19.9532 42.4473H19.9621C30.8659 42.4473 39.942 33.5674 39.942 22.6546C39.942 17.3677 37.6953 12.4017 33.9596 8.6571ZM19.9621 39.1129C17.0021 39.1129 14.1045 38.3194 11.5814 36.8216L10.984 36.4649L4.76094 38.0965L6.41925 32.0249L6.02696 31.4009C4.37757 28.7797 3.51276 25.7573 3.51276 22.6457C3.51276 13.5785 10.8949 6.19639 19.971 6.19639C24.3664 6.19639 28.4943 7.90819 31.597 11.0197C34.6996 14.1313 36.6075 18.2592 36.5986 22.6546C36.5986 31.7307 29.0293 39.1129 19.9621 39.1129ZM28.9847 26.7915C28.4943 26.5418 26.0604 25.3471 25.6057 25.1867C25.151 25.0173 24.8211 24.937 24.4912 25.4363C24.1613 25.9356 23.2163 27.0411 22.9221 27.3799C22.6368 27.7098 22.3426 27.7544 21.8522 27.5047C18.9457 26.0515 17.0378 24.9103 15.1209 21.6204C14.6127 20.7467 15.6291 20.8091 16.5741 18.919C16.7346 18.5891 16.6544 18.3038 16.5296 18.0542C16.4047 17.8045 15.4151 15.3706 15.005 14.3809C14.6038 13.418 14.1937 13.5518 13.8905 13.5339C13.6052 13.5161 13.2754 13.5161 12.9455 13.5161C12.6156 13.5161 12.0807 13.6409 11.626 14.1313C11.1713 14.6306 9.89634 15.8253 9.89634 18.2592C9.89634 20.6932 11.6706 23.0469 11.9113 23.3768C12.1609 23.7067 15.3973 28.6994 20.3633 30.8481C23.5016 32.2033 24.7319 32.3192 26.3011 32.0874C27.2551 31.9447 29.2254 30.8927 29.6355 29.7336C30.0457 28.5746 30.0457 27.585 29.9208 27.3799C29.8049 27.157 29.4751 27.0322 28.9847 26.7915Z" fill="currentColor"></path></svg>