<svg xmlns="http://www.w3.org/2000/svg" viewBox="0 0 19 22" fill="currentColor" width="24" height="24" role="img" aria-hidden="true"><path d="M12.9861 12.5888C11.7976 12.5888 11.2262 13.2514 9.27575 13.2514C7.32531 13.2514 6.75799 12.5888 5.56536 12.5888C2.4927 12.5888 -0.000213623 15.0817 -0.000213623 18.1544V19.2145C-0.000213623 20.3119 0.890113 21.2022 1.98749 21.2022H16.564C17.6614 21.2022 18.5517 20.3119 18.5517 19.2145V18.1544C18.5517 15.0817 16.0588 12.5888 12.9861 12.5888ZM16.564 19.2145H1.98749V18.1544C1.98749 16.1832 3.59422 14.5765 5.56536 14.5765C6.16996 14.5765 7.15139 15.2391 9.27575 15.2391C11.4167 15.2391 12.3774 14.5765 12.9861 14.5765C14.9573 14.5765 16.564 16.1832 16.564 18.1544V19.2145ZM9.27575 11.9262C12.5679 11.9262 15.2389 9.25526 15.2389 5.96312C15.2389 2.67098 12.5679 0 9.27575 0C5.98361 0 3.31263 2.67098 3.31263 5.96312C3.31263 9.25526 5.98361 11.9262 9.27575 11.9262ZM9.27575 1.98771C11.4664 1.98771 13.2512 3.7725 13.2512 5.96312C13.2512 8.15374 11.4664 9.93853 9.27575 9.93853C7.08513 9.93853 5.30033 8.15374 5.30033 5.96312C5.30033 3.7725 7.08513 1.98771 9.27575 1.98771Z" fill="currentColor"></path></svg>