<svg xmlns="http://www.w3.org/2000/svg" viewBox="0 0 24 22" fill="currentColor" width="24" height="24" role="img" aria-hidden="true"><path d="M21.8686 7.10188L15.8186 6.21984L13.1145 0.737083C12.63 -0.240205 11.2261 -0.252629 10.7375 0.737083L8.03338 6.21984L1.9833 7.10188C0.898345 7.25924 0.463535 8.5968 1.25033 9.3629L5.62743 13.6282L4.59216 19.6534C4.40582 20.7425 5.55289 21.5583 6.51361 21.049L11.926 18.204L17.3383 21.049C18.2991 21.5542 19.4461 20.7425 19.2598 19.6534L18.2245 13.6282L22.6016 9.3629C23.3884 8.5968 22.9536 7.25924 21.8686 7.10188ZM16.0919 12.9325L17.0733 18.6637L11.926 15.9596L6.77864 18.6637L7.76007 12.9325L3.59417 8.87425L9.35024 8.03776L11.926 2.82003L14.5017 8.03776L20.2578 8.87425L16.0919 12.9325Z" fill="currentColor"></path></svg>