<svg xmlns="http://www.w3.org/2000/svg" viewBox="0 0 15 22" fill="currentColor" width="24" height="24" role="img" aria-hidden="true"><path d="M7.28838 3.31284C5.0961 3.31284 3.31297 5.09598 3.31297 7.28825C3.31297 7.65432 3.60946 7.95082 3.97553 7.95082C4.3416 7.95082 4.6381 7.65432 4.6381 7.28825C4.6381 5.82646 5.82741 4.63798 7.28838 4.63798C7.65445 4.63798 7.95095 4.34148 7.95095 3.97541C7.95095 3.60934 7.65445 3.31284 7.28838 3.31284ZM3.97802 19.0145C3.97802 19.1449 4.01653 19.272 4.089 19.3805L5.10397 20.9061C5.22696 21.0908 5.43401 21.2018 5.65556 21.2018H8.92078C9.14274 21.2018 9.34979 21.0908 9.47237 20.9061L10.4873 19.3805C10.5594 19.272 10.5979 19.1445 10.5983 19.0145L10.6004 17.2264H3.97636L3.97802 19.0145ZM7.28838 0C3.05291 0 0.00012207 3.43583 0.00012207 7.28825C0.00012207 9.12564 0.681325 10.8019 1.80397 12.0828C2.49304 12.8692 3.57385 14.5177 3.97471 15.8992V15.9016H5.96241V15.8967C5.962 15.6991 5.9326 15.5029 5.87338 15.314C5.64189 14.5765 4.92839 12.6319 3.29889 10.7725C2.44831 9.80229 1.99363 8.57157 1.9899 7.28825C1.98162 4.23878 4.46087 1.98771 7.28838 1.98771C10.2111 1.98771 12.5889 4.3655 12.5889 7.28825C12.5889 8.57074 12.1235 9.80809 11.2783 10.7725C9.65872 12.6199 8.9419 14.5604 8.70669 15.3053C8.64598 15.4969 8.61498 15.6966 8.61476 15.8975V15.9016H10.6025V15.8996C11.0033 14.5177 12.0841 12.8692 12.7732 12.0832C13.8954 10.8019 14.5766 9.12564 14.5766 7.28825C14.5766 3.26315 11.3135 0 7.28838 0Z" fill="currentColor"></path></svg>