<svg xmlns="http://www.w3.org/2000/svg" viewBox="0 0 24 22" fill="currentColor" width="24" height="24" role="img" aria-hidden="true"><path d="M21.8606 9.27595H19.8771V7.28825C19.8771 6.19087 18.9867 5.30054 17.8894 5.30054H11.2637L8.61339 2.65027H1.98771C0.890326 2.65027 0 3.5406 0 4.63797V16.5642C0 17.6616 0.890326 18.5519 1.98771 18.5519H18.5519C19.2352 18.5519 19.8729 18.1999 20.2373 17.616L23.546 12.3155C24.3742 10.9945 23.4218 9.27595 21.8606 9.27595ZM1.98771 4.88644C1.98771 4.74978 2.09951 4.63797 2.23617 4.63797H7.78932L10.4396 7.28825H17.6409C17.7775 7.28825 17.8894 7.40006 17.8894 7.53671V9.27595H6.2944C5.5987 9.27595 4.9527 9.64037 4.59243 10.2367L1.98771 14.5517V4.88644ZM18.5519 16.5642H2.98156L6.17845 11.2637H21.8648L18.5519 16.5642Z" fill="currentColor"></path></svg>