<svg xmlns="http://www.w3.org/2000/svg" viewBox="0 0 40 46" fill="currentColor" width="24" height="24" role="img" aria-hidden="true"><path d="M19.9795 12.571C14.3092 12.571 9.73547 17.1447 9.73547 22.8151C9.73547 28.4854 14.3092 33.0591 19.9795 33.0591C25.6499 33.0591 30.2236 28.4854 30.2236 22.8151C30.2236 17.1447 25.6499 12.571 19.9795 12.571ZM19.9795 29.475C16.3152 29.475 13.3195 26.4883 13.3195 22.8151C13.3195 19.1418 16.3063 16.1551 19.9795 16.1551C23.6528 16.1551 26.6395 19.1418 26.6395 22.8151C26.6395 26.4883 23.6438 29.475 19.9795 29.475ZM33.032 12.152C33.032 13.4804 31.9621 14.5414 30.6426 14.5414C29.3142 14.5414 28.2532 13.4715 28.2532 12.152C28.2532 10.8325 29.3231 9.7626 30.6426 9.7626C31.9621 9.7626 33.032 10.8325 33.032 12.152ZM39.8168 14.577C39.6652 11.3763 38.9341 8.54116 36.5893 6.20527C34.2534 3.86938 31.4183 3.1383 28.2176 2.97782C24.9188 2.79059 15.0313 2.79059 11.7326 2.97782C8.54077 3.12938 5.70561 3.86046 3.3608 6.19636C1.01599 8.53225 0.293822 11.3674 0.133341 14.5681C-0.0538871 17.8669 -0.0538871 27.7543 0.133341 31.0531C0.284907 34.2538 1.01599 37.089 3.3608 39.4249C5.70561 41.7608 8.53186 42.4919 11.7326 42.6523C15.0313 42.8396 24.9188 42.8396 28.2176 42.6523C31.4183 42.5008 34.2534 41.7697 36.5893 39.4249C38.9252 37.089 39.6563 34.2538 39.8168 31.0531C40.004 27.7543 40.004 17.8758 39.8168 14.577ZM35.5551 34.5926C34.8597 36.3401 33.5134 37.6863 31.7571 38.3907C29.1269 39.4338 22.886 39.1931 19.9795 39.1931C17.073 39.1931 10.8232 39.4249 8.20198 38.3907C6.45452 37.6953 5.10826 36.349 4.40392 34.5926C3.3608 31.9625 3.60152 25.7216 3.60152 22.8151C3.60152 19.9086 3.36971 13.6587 4.40392 11.0375C5.09934 9.29008 6.4456 7.94382 8.20198 7.23948C10.8321 6.19636 17.073 6.43708 19.9795 6.43708C22.886 6.43708 29.1359 6.20527 31.7571 7.23948C33.5045 7.9349 34.8508 9.28116 35.5551 11.0375C36.5982 13.6676 36.3575 19.9086 36.3575 22.8151C36.3575 25.7216 36.5982 31.9714 35.5551 34.5926Z" fill="currentColor"></path></svg>