<svg xmlns="http://www.w3.org/2000/svg" viewBox="0 0 22 22" fill="currentColor" width="24" height="24" role="img" aria-hidden="true"><path d="M15.393 9.85572L8.10479 5.4248C7.4505 5.06038 6.62643 5.52832 6.62643 6.29442V14.9078C6.62643 15.6698 7.44636 16.1418 8.10479 15.7774L15.393 11.595C16.0722 11.2181 16.0722 10.2367 15.393 9.85572ZM20.8717 10.6011C20.8717 4.92787 16.2751 0.331299 10.6018 0.331299C4.9286 0.331299 0.332031 4.92787 0.332031 10.6011C0.332031 16.2744 4.9286 20.8709 10.6018 20.8709C16.2751 20.8709 20.8717 16.2744 20.8717 10.6011ZM2.31974 10.6011C2.31974 6.02525 6.02598 2.319 10.6018 2.319C15.1777 2.319 18.884 6.02525 18.884 10.6011C18.884 15.177 15.1777 18.8832 10.6018 18.8832C6.02598 18.8832 2.31974 15.177 2.31974 10.6011Z" fill="currentColor"></path></svg>