<svg xmlns="http://www.w3.org/2000/svg" style="position:absolute;width:0;height:0;overflow:hidden" aria-hidden="true">
  <symbol id="icon-user" viewBox="0 0 19 22" fill="currentColor"><path d="M12.9861 12.5888C11.7976 12.5888 11.2262 13.2514 9.27575 13.2514C7.32531 13.2514 6.75799 12.5888 5.56536 12.5888C2.4927 12.5888 -0.000213623 15.0817 -0.000213623 18.1544V19.2145C-0.000213623 20.3119 0.890113 21.2022 1.98749 21.2022H16.564C17.6614 21.2022 18.5517 20.3119 18.5517 19.2145V18.1544C18.5517 15.0817 16.0588 12.5888 12.9861 12.5888ZM16.564 19.2145H1.98749V18.1544C1.98749 16.1832 3.59422 14.5765 5.56536 14.5765C6.16996 14.5765 7.15139 15.2391 9.27575 15.2391C11.4167 15.2391 12.3774 14.5765 12.9861 14.5765C14.9573 14.5765 16.564 16.1832 16.564 18.1544V19.2145ZM9.27575 11.9262C12.5679 11.9262 15.2389 9.25526 15.2389 5.96312C15.2389 2.67098 12.5679 0 9.27575 0C5.98361 0 3.31263 2.67098 3.31263 5.96312C3.31263 9.25526 5.98361 11.9262 9.27575 11.9262ZM9.27575 1.98771C11.4664 1.98771 13.2512 3.7725 13.2512 5.96312C13.2512 8.15374 11.4664 9.93853 9.27575 9.93853C7.08513 9.93853 5.30033 8.15374 5.30033 5.96312C5.30033 3.7725 7.08513 1.98771 9.27575 1.98771Z" fill="currentColor"></path></symbol>
  <symbol id="icon-user-circle" viewBox="0 0 21 22" fill="currentColor"><path d="M10.2698 4.30671C8.07506 4.30671 6.2944 6.08736 6.2944 8.28212C6.2944 10.4769 8.07506 12.2575 10.2698 12.2575C12.4646 12.2575 14.2452 10.4769 14.2452 8.28212C14.2452 6.08736 12.4646 4.30671 10.2698 4.30671ZM10.2698 10.2698C9.17243 10.2698 8.28211 9.3795 8.28211 8.28212C8.28211 7.18474 9.17243 6.29442 10.2698 6.29442C11.3672 6.29442 12.2575 7.18474 12.2575 8.28212C12.2575 9.3795 11.3672 10.2698 10.2698 10.2698ZM10.2698 0.331299C4.59657 0.331299 0 4.92787 0 10.6011C0 16.2744 4.59657 20.8709 10.2698 20.8709C15.9431 20.8709 20.5396 16.2744 20.5396 10.6011C20.5396 4.92787 15.9431 0.331299 10.2698 0.331299ZM10.2698 18.8832C8.21171 18.8832 6.33167 18.1254 4.8823 16.879C5.49932 15.9265 6.55529 15.2805 7.76448 15.2432C8.62582 15.5083 9.44574 15.6408 10.2698 15.6408C11.0939 15.6408 11.9138 15.5124 12.7752 15.2432C13.9843 15.2846 15.0403 15.9265 15.6573 16.879C14.208 18.1254 12.3279 18.8832 10.2698 18.8832ZM17.0073 15.4006C15.9969 14.1003 14.4357 13.2514 12.6551 13.2514C12.2327 13.2514 11.5784 13.6489 10.2698 13.6489C8.96538 13.6489 8.30695 13.2514 7.88457 13.2514C6.10805 13.2514 4.54688 14.1003 3.53232 15.4006C2.56331 14.0465 1.98771 12.39 1.98771 10.6011C1.98771 6.03353 5.70223 2.319 10.2698 2.319C14.8374 2.319 18.5519 6.03353 18.5519 10.6011C18.5519 12.39 17.9763 14.0465 17.0073 15.4006Z" fill="currentColor"></path></symbol>
  <symbol id="icon-heart" viewBox="0 0 22 22" fill="currentColor"><path d="M18.9826 2.66269C16.5891 0.650135 12.8911 0.952431 10.6011 3.28384C8.3111 0.952431 4.61314 0.645993 2.21961 2.66269C-0.894463 5.28397 -0.438947 9.55754 1.78066 11.8227L9.04407 19.2228C9.45817 19.6451 10.0131 19.8812 10.6011 19.8812C11.1933 19.8812 11.744 19.6493 12.1581 19.2269L19.4215 11.8268C21.637 9.56168 22.1008 5.28811 18.9826 2.66269ZM18.0053 10.4272L10.7419 17.8272C10.6425 17.9266 10.5597 17.9266 10.4603 17.8272L3.1969 10.4272C1.68541 8.88669 1.37898 5.97139 3.4992 4.18659C5.11006 2.83247 7.5947 3.03538 9.15173 4.6214L10.6011 6.09976L12.0505 4.6214C13.6158 3.0271 16.1004 2.83247 17.703 4.18245C19.8191 5.96725 19.5044 8.89911 18.0053 10.4272Z" fill="currentColor"></path></symbol>
  <symbol id="icon-star" viewBox="0 0 24 22" fill="currentColor"><path d="M21.8686 7.10188L15.8186 6.21984L13.1145 0.737083C12.63 -0.240205 11.2261 -0.252629 10.7375 0.737083L8.03338 6.21984L1.9833 7.10188C0.898345 7.25924 0.463535 8.5968 1.25033 9.3629L5.62743 13.6282L4.59216 19.6534C4.40582 20.7425 5.55289 21.5583 6.51361 21.049L11.926 18.204L17.3383 21.049C18.2991 21.5542 19.4461 20.7425 19.2598 19.6534L18.2245 13.6282L22.6016 9.3629C23.3884 8.5968 22.9536 7.25924 21.8686 7.10188ZM16.0919 12.9325L17.0733 18.6637L11.926 15.9596L6.77864 18.6637L7.76007 12.9325L3.59417 8.87425L9.35024 8.03776L11.926 2.82003L14.5017 8.03776L20.2578 8.87425L16.0919 12.9325Z" fill="currentColor"></path></symbol>
  <symbol id="icon-lightbulb" viewBox="0 0 15 22" fill="currentColor"><path d="M7.28838 3.31284C5.0961 3.31284 3.31297 5.09598 3.31297 7.28825C3.31297 7.65432 3.60946 7.95082 3.97553 7.95082C4.3416 7.95082 4.6381 7.65432 4.6381 7.28825C4.6381 5.82646 5.82741 4.63798 7.28838 4.63798C7.65445 4.63798 7.95095 4.34148 7.95095 3.97541C7.95095 3.60934 7.65445 3.31284 7.28838 3.31284ZM3.97802 19.0145C3.97802 19.1449 4.01653 19.272 4.089 19.3805L5.10397 20.9061C5.22696 21.0908 5.43401 21.2018 5.65556 21.2018H8.92078C9.14274 21.2018 9.34979 21.0908 9.47237 20.9061L10.4873 19.3805C10.5594 19.272 10.5979 19.1445 10.5983 19.0145L10.6004 17.2264H3.97636L3.97802 19.0145ZM7.28838 0C3.05291 0 0.00012207 3.43583 0.00012207 7.28825C0.00012207 9.12564 0.681325 10.8019 1.80397 12.0828C2.49304 12.8692 3.57385 14.5177 3.97471 15.8992V15.9016H5.96241V15.8967C5.962 15.6991 5.9326 15.5029 5.87338 15.314C5.64189 14.5765 4.92839 12.6319 3.29889 10.7725C2.44831 9.80229 1.99363 8.57157 1.9899 7.28825C1.98162 4.23878 4.46087 1.98771 7.28838 1.98771C10.2111 1.98771 12.5889 4.3655 12.5889 7.28825C12.5889 8.57074 12.1235 9.80809 11.2783 10.7725C9.65872 12.6199 8.9419 14.5604 8.70669 15.3053C8.64598 15.4969 8.61498 15.6966 8.61476 15.8975V15.9016H10.6025V15.8996C11.0033 14.5177 12.0841 12.8692 12.7732 12.0832C13.8954 10.8019 14.5766 9.12564 14.5766 7.28825C14.5766 3.26315 11.3135 0 7.28838 0Z" fill="currentColor"></path></symbol>
  <symbol id="icon-folder-open" viewBox="0 0 24 22" fill="currentColor"><path d="M21.8606 9.27595H19.8771V7.28825C19.8771 6.19087 18.9867 5.30054 17.8894 5.30054H11.2637L8.61339 2.65027H1.98771C0.890326 2.65027 0 3.5406 0 4.63797V16.5642C0 17.6616 0.890326 18.5519 1.98771 18.5519H18.5519C19.2352 18.5519 19.8729 18.1999 20.2373 17.616L23.546 12.3155C24.3742 10.9945 23.4218 9.27595 21.8606 9.27595ZM1.98771 4.88644C1.98771 4.74978 2.09951 4.63797 2.23617 4.63797H7.78932L10.4396 7.28825H17.6409C17.7775 7.28825 17.8894 7.40006 17.8894 7.53671V9.27595H6.2944C5.5987 9.27595 4.9527 9.64037 4.59243 10.2367L1.98771 14.5517V4.88644ZM18.5519 16.5642H2.98156L6.17845 11.2637H21.8648L18.5519 16.5642Z" fill="currentColor"></path></symbol>
  <symbol id="icon-circle-play" viewBox="0 0 22 22" fill="currentColor"><path d="M15.393 9.85572L8.10479 5.4248C7.4505 5.06038 6.62643 5.52832 6.62643 6.29442V14.9078C6.62643 15.6698 7.44636 16.1418 8.10479 15.7774L15.393 11.595C16.0722 11.2181 16.0722 10.2367 15.393 9.85572ZM20.8717 10.6011C20.8717 4.92787 16.2751 0.331299 10.6018 0.331299C4.9286 0.331299 0.332031 4.92787 0.332031 10.6011C0.332031 16.2744 4.9286 20.8709 10.6018 20.8709C16.2751 20.8709 20.8717 16.2744 20.8717 10.6011ZM2.31974 10.6011C2.31974 6.02525 6.02598 2.319 10.6018 2.319C15.1777 2.319 18.884 6.02525 18.884 10.6011C18.884 15.177 15.1777 18.8832 10.6018 18.8832C6.02598 18.8832 2.31974 15.177 2.31974 10.6011Z" fill="currentColor"></path></symbol>
  <symbol id="icon-close" viewBox="0 0 22 22" fill="currentColor"><path d="M10.6009 0.331299C4.92762 0.331299 0.331055 4.92787 0.331055 10.6011C0.331055 16.2744 4.92762 20.8709 10.6009 20.8709C16.2741 20.8709 20.8707 16.2744 20.8707 10.6011C20.8707 4.92787 16.2741 0.331299 10.6009 0.331299ZM10.6009 18.8832C6.025 18.8832 2.31876 15.177 2.31876 10.6011C2.31876 6.02525 6.025 2.319 10.6009 2.319C15.1767 2.319 18.883 6.02525 18.883 10.6011C18.883 15.177 15.1767 18.8832 10.6009 18.8832ZM14.8165 8.02538L12.2407 10.6011L14.8165 13.1768C15.0111 13.3715 15.0111 13.6862 14.8165 13.8808L13.8806 14.8167C13.686 15.0113 13.3712 15.0113 13.1766 14.8167L10.6009 12.241L8.02513 14.8167C7.8305 15.0113 7.51578 15.0113 7.32115 14.8167L6.38528 13.8808C6.19065 13.6862 6.19065 13.3715 6.38528 13.1768L8.96101 10.6011L6.38528 8.02538C6.19065 7.83075 6.19065 7.51603 6.38528 7.3214L7.32115 6.38552C7.51578 6.19089 7.8305 6.19089 8.02513 6.38552L10.6009 8.96126L13.1766 6.38552C13.3712 6.19089 13.686 6.19089 13.8806 6.38552L14.8165 7.3214C15.0111 7.51603 15.0111 7.83075 14.8165 8.02538Z" fill="currentColor"></path></symbol>
  <symbol id="icon-instagram" viewBox="0 0 40 46" fill="currentColor"><path d="M19.9795 12.571C14.3092 12.571 9.73547 17.1447 9.73547 22.8151C9.73547 28.4854 14.3092 33.0591 19.9795 33.0591C25.6499 33.0591 30.2236 28.4854 30.2236 22.8151C30.2236 17.1447 25.6499 12.571 19.9795 12.571ZM19.9795 29.475C16.3152 29.475 13.3195 26.4883 13.3195 22.8151C13.3195 19.1418 16.3063 16.1551 19.9795 16.1551C23.6528 16.1551 26.6395 19.1418 26.6395 22.8151C26.6395 26.4883 23.6438 29.475 19.9795 29.475ZM33.032 12.152C33.032 13.4804 31.9621 14.5414 30.6426 14.5414C29.3142 14.5414 28.2532 13.4715 28.2532 12.152C28.2532 10.8325 29.3231 9.7626 30.6426 9.7626C31.9621 9.7626 33.032 10.8325 33.032 12.152ZM39.8168 14.577C39.6652 11.3763 38.9341 8.54116 36.5893 6.20527C34.2534 3.86938 31.4183 3.1383 28.2176 2.97782C24.9188 2.79059 15.0313 2.79059 11.7326 2.97782C8.54077 3.12938 5.70561 3.86046 3.3608 6.19636C1.01599 8.53225 0.293822 11.3674 0.133341 14.5681C-0.0538871 17.8669 -0.0538871 27.7543 0.133341 31.0531C0.284907 34.2538 1.01599 37.089 3.3608 39.4249C5.70561 41.7608 8.53186 42.4919 11.7326 42.6523C15.0313 42.8396 24.9188 42.8396 28.2176 42.6523C31.4183 42.5008 34.2534 41.7697 36.5893 39.4249C38.9252 37.089 39.6563 34.2538 39.8168 31.0531C40.004 27.7543 40.004 17.8758 39.8168 14.577ZM35.5551 34.5926C34.8597 36.3401 33.5134 37.6863 31.7571 38.3907C29.1269 39.4338 22.886 39.1931 19.9795 39.1931C17.073 39.1931 10.8232 39.4249 8.20198 38.3907C6.45452 37.6953 5.10826 36.349 4.40392 34.5926C3.3608 31.9625 3.60152 25.7216 3.60152 22.8151C3.60152 19.9086 3.36971 13.6587 4.40392 11.0375C5.09934 9.29008 6.4456 7.94382 8.20198 7.23948C10.8321 6.19636 17.073 6.43708 19.9795 6.43708C22.886 6.43708 29.1359 6.20527 31.7571 7.23948C33.5045 7.9349 34.8508 9.28116 35.5551 11.0375C36.5982 13.6676 36.3575 19.9086 36.3575 22.8151C36.3575 25.7216 36.5982 31.9714 35.5551 34.5926Z" fill="currentColor"></path></symbol>
  <symbol id="icon-telegram" viewBox="0 0 45 46" fill="currentColor"><path d="M22.1107 0.713318C9.89634 0.713318 0 10.6097 0 22.8241C0 35.0385 9.89634 44.9348 22.1107 44.9348C34.3251 44.9348 44.2215 35.0385 44.2215 22.8241C44.2215 10.6097 34.3251 0.713318 22.1107 0.713318ZM32.97 15.861L29.3413 32.9611C29.0738 34.1736 28.3517 34.4679 27.3442 33.8973L21.8165 29.8228L19.1508 32.3905C18.8565 32.6847 18.6069 32.9344 18.0363 32.9344L18.4286 27.3086L28.6726 18.0542C29.1184 17.6619 28.5746 17.439 27.9861 17.8313L15.326 25.8019L9.86959 24.099C8.68382 23.7245 8.65707 22.9132 10.1192 22.3426L31.4365 14.1224C32.4261 13.7658 33.2909 14.3631 32.97 15.861Z" fill="currentColor"></path></symbol>
  <symbol id="icon-whatsapp" viewBox="0 0 40 46" fill="currentColor"><path d="M33.9596 8.6571C30.224 4.91254 25.249 2.85303 19.9621 2.85303C9.04936 2.85303 0.169397 11.733 0.169397 22.6457C0.169397 26.1317 1.07879 29.5375 2.80842 32.5421L0 42.795L10.4937 40.0401C13.3823 41.6182 16.6366 42.4473 19.9532 42.4473H19.9621C30.8659 42.4473 39.942 33.5674 39.942 22.6546C39.942 17.3677 37.6953 12.4017 33.9596 8.6571ZM19.9621 39.1129C17.0021 39.1129 14.1045 38.3194 11.5814 36.8216L10.984 36.4649L4.76094 38.0965L6.41925 32.0249L6.02696 31.4009C4.37757 28.7797 3.51276 25.7573 3.51276 22.6457C3.51276 13.5785 10.8949 6.19639 19.971 6.19639C24.3664 6.19639 28.4943 7.90819 31.597 11.0197C34.6996 14.1313 36.6075 18.2592 36.5986 22.6546C36.5986 31.7307 29.0293 39.1129 19.9621 39.1129ZM28.9847 26.7915C28.4943 26.5418 26.0604 25.3471 25.6057 25.1867C25.151 25.0173 24.8211 24.937 24.4912 25.4363C24.1613 25.9356 23.2163 27.0411 22.9221 27.3799C22.6368 27.7098 22.3426 27.7544 21.8522 27.5047C18.9457 26.0515 17.0378 24.9103 15.1209 21.6204C14.6127 20.7467 15.6291 20.8091 16.5741 18.919C16.7346 18.5891 16.6544 18.3038 16.5296 18.0542C16.4047 17.8045 15.4151 15.3706 15.005 14.3809C14.6038 13.418 14.1937 13.5518 13.8905 13.5339C13.6052 13.5161 13.2754 13.5161 12.9455 13.5161C12.6156 13.5161 12.0807 13.6409 11.626 14.1313C11.1713 14.6306 9.89634 15.8253 9.89634 18.2592C9.89634 20.6932 11.6706 23.0469 11.9113 23.3768C12.1609 23.7067 15.3973 28.6994 20.3633 30.8481C23.5016 32.2033 24.7319 32.3192 26.3011 32.0874C27.2551 31.9447 29.2254 30.8927 29.6355 29.7336C30.0457 28.5746 30.0457 27.585 29.9208 27.3799C29.8049 27.157 29.4751 27.0322 28.9847 26.7915Z" fill="currentColor"></path></symbol>
</svg>